<?xml version="1.0" standalone="yes"?>
<svg xmlns="http://www.w3.org/2000/svg" width="1800" height="93">
<path style="fill:transprent; stroke:none;" d="M0 0L0 93L97 88.0895L234 81.0895L566 64.0895L1088 37.9105L1420 20.9105L1800 1C1788.07 -4.00671 1766.99 0 1754 0L1648 0L1279 0L0 0z"/>
<path style="fill:#d2edf0; stroke:none;" d="M15 92L15 93L1800 93L1800 1C1744.81 2.13921 1689.08 6.13879 1634 9.91049C1549.43 15.7016 1464.57 17.1193 1380 22.9105C1258.49 31.2315 1136.51 32.7685 1015 41.0895C826.688 53.9851 637.581 61.7816 449 70.0394C351.097 74.3264 252.772 78.3941 155 85.0895C108.613 88.2661 61.52 92 15 92z"/>
</svg>
