<?xml version="1.0" encoding="UTF-8" standalone="no"?>
<!-- Created with Inkscape (http://www.inkscape.org/) -->

<svg
   version="1.1"
   id="svg2270"
   width="880"
   height="880"
   viewBox="0 0 880 880"
   sodipodi:docname="cute-snail-publicdomainvectors.org.svg"
   inkscape:version="1.2 (dc2aedaf03, 2022-05-15)"
   xmlns:inkscape="http://www.inkscape.org/namespaces/inkscape"
   xmlns:sodipodi="http://sodipodi.sourceforge.net/DTD/sodipodi-0.dtd"
   xmlns="http://www.w3.org/2000/svg"
   xmlns:svg="http://www.w3.org/2000/svg">
  <defs
     id="defs2274">
    <clipPath
       clipPathUnits="userSpaceOnUse"
       id="clipPath2286">
      <path
         d="M 0,660 H 660 V 0 H 0 Z"
         id="path2284" />
    </clipPath>
  </defs>
  <sodipodi:namedview
     id="namedview2272"
     pagecolor="#ffffff"
     bordercolor="#000000"
     borderopacity="0.25"
     inkscape:showpageshadow="2"
     inkscape:pageopacity="0.0"
     inkscape:pagecheckerboard="0"
     inkscape:deskcolor="#d1d1d1"
     showgrid="false"
     inkscape:zoom="0.95113636"
     inkscape:cx="402.15054"
     inkscape:cy="440.52569"
     inkscape:window-width="1920"
     inkscape:window-height="1017"
     inkscape:window-x="-8"
     inkscape:window-y="-8"
     inkscape:window-maximized="1"
     inkscape:current-layer="g2278">
    <inkscape:page
       x="0"
       y="0"
       id="page2276"
       width="880"
       height="880" />
  </sodipodi:namedview>
  <g
     id="g2278"
     inkscape:groupmode="layer"
     inkscape:label="Page 1"
     transform="matrix(1.3333333,0,0,-1.3333333,0,880)">
    <g
       id="g2280">
      <g
         id="g2282"
         clip-path="url(#clipPath2286)">
        <g
           id="g2288"
           transform="translate(206.8525,142.5215)">
          <path
             d="m 0,0 h 248.851 c 13.29,0 24.162,-10.873 24.162,-24.162 0,-13.291 -10.872,-24.164 -24.162,-24.164 H 0 c -13.291,0 -24.164,10.873 -24.164,24.164 C -24.164,-10.873 -13.291,0 0,0"
             style="fill:#448733;fill-opacity:1;fill-rule:evenodd;stroke:none"
             id="path2290" />
        </g>
        <g
           id="g2292"
           transform="translate(331.2783,553.291)">
          <path
             d="m 0,0 v 0 c 83.991,0 152.708,-68.722 152.708,-152.711 v -22.249 c 0,-83.99 -68.717,-152.711 -152.708,-152.711 -83.992,0 -152.711,68.721 -152.711,152.711 v 22.249 C -152.711,-68.722 -83.992,0 0,0"
             style="fill:#a02620;fill-opacity:1;fill-rule:evenodd;stroke:none"
             id="path2294" />
        </g>
        <g
           id="g2296"
           transform="translate(331.2783,600.4365)">
          <path
             d="m 0,0 v 0 c 70.378,0 127.957,-57.581 127.957,-127.959 v -166.046 c 0,-70.378 -57.579,-127.96 -127.957,-127.96 -70.378,0 -127.96,57.582 -127.96,127.96 v 166.046 C -127.96,-57.581 -70.378,0 0,0"
             style="fill:#c43322;fill-opacity:1;fill-rule:evenodd;stroke:none"
             id="path2298" />
        </g>
        <g
           id="g2300"
           transform="translate(394.1006,195.0752)">
          <path
             d="m 0,0 c -18.586,-10.557 -40.032,-16.602 -62.822,-16.602 -25.869,0 -50.002,7.788 -70.189,21.123 4.635,1.65 9.626,2.551 14.827,2.551 7.917,0 15.35,-2.084 21.775,-5.73 2.987,-1.696 6.113,-2.819 9.281,-3.369 8.096,12.35 13.144,29.812 13.144,49.172 0,19.981 -5.376,37.939 -13.929,50.341 -25.623,14.38 -42.941,41.808 -42.941,73.282 0,28.318 14.017,53.363 35.492,68.575 0.009,3.519 -1.169,7.784 -3.522,11.909 -2.552,4.471 -5.944,7.839 -9.219,9.517 -2.449,-0.571 -4.996,-0.873 -7.619,-0.873 -18.469,0 -33.442,14.973 -33.442,33.445 0,18.469 14.973,33.444 33.442,33.444 18.472,0 33.448,-14.975 33.448,-33.444 0,-9.238 -3.747,-17.6 -9.799,-23.652 -0.165,-3.638 1.009,-8.173 3.505,-12.552 2.386,-4.184 5.511,-7.4 8.588,-9.173 10.156,4.362 21.349,6.783 33.105,6.783 11.757,0 22.948,-2.419 33.107,-6.783 3.077,1.773 6.201,4.989 8.585,9.173 2.498,4.379 3.672,8.914 3.507,12.552 -6.054,6.052 -9.799,14.414 -9.799,23.652 0,18.469 14.974,33.444 33.446,33.444 18.471,0 33.444,-14.975 33.444,-33.444 0,-18.472 -14.973,-33.445 -33.444,-33.445 -2.621,0 -5.17,0.302 -7.618,0.873 -3.276,-1.678 -6.668,-5.046 -9.218,-9.517 -2.352,-4.125 -3.531,-8.388 -3.522,-11.909 21.475,-15.212 35.492,-40.257 35.492,-68.575 0,-31.671 -17.535,-59.243 -43.421,-73.55 C -14.761,84.826 -20.06,66.98 -20.06,47.145 -20.06,27.763 -15,10.281 -6.889,-2.071 -4.558,-1.69 -2.25,-1 0,0"
             style="fill:#a02620;fill-opacity:1;fill-rule:evenodd;stroke:none"
             id="path2302" />
        </g>
        <g
           id="g2304"
           transform="translate(331.2783,651.1191)">
          <path
             d="M 0,0 V 0 C 49.592,0 90.167,-40.575 90.167,-90.169 V -472.645 H -90.167 V -90.169 C -90.167,-40.575 -49.594,0 0,0"
             style="fill:#dc4220;fill-opacity:1;fill-rule:evenodd;stroke:none"
             id="path2306" />
        </g>
        <g
           id="g2308"
           transform="translate(421.4453,521.4277)">
          <path
             d="m 0,0 v -66.025 c -1.751,-0.284 -3.545,-0.431 -5.374,-0.431 -2.621,0 -5.17,0.302 -7.618,0.872 -3.276,-1.678 -6.668,-5.046 -9.218,-9.517 -2.351,-4.125 -3.53,-8.387 -3.521,-11.909 10.697,-7.58 19.546,-17.599 25.731,-29.248 v -78.647 c -7.655,-14.419 -19.388,-26.341 -33.661,-34.23 -8.444,-12.391 -13.743,-30.237 -13.743,-50.072 0,-19.383 5.059,-36.864 13.171,-49.217 3.258,0.535 6.476,1.671 9.547,3.413 6.426,3.649 13.857,5.731 21.776,5.731 0.978,0 1.948,-0.036 2.91,-0.101 v -23.573 h -180.334 v 6.717 c 8.09,10.323 20.671,16.957 34.806,16.957 7.917,0 15.349,-2.084 21.774,-5.731 2.987,-1.696 6.113,-2.818 9.281,-3.369 8.096,12.351 13.144,29.813 13.144,49.173 0,19.981 -5.376,37.939 -13.929,50.341 -25.623,14.38 -42.941,41.807 -42.941,73.281 0,28.318 14.017,53.363 35.492,68.575 0.009,3.52 -1.169,7.784 -3.521,11.909 -2.552,4.471 -5.945,7.839 -9.22,9.517 -2.448,-0.57 -4.995,-0.872 -7.618,-0.872 -18.47,0 -33.443,14.973 -33.443,33.444 0,18.47 14.973,33.445 33.443,33.445 18.471,0 33.447,-14.975 33.447,-33.445 0,-9.237 -3.746,-17.599 -9.799,-23.652 -0.165,-3.638 1.009,-8.173 3.505,-12.552 2.387,-4.183 5.512,-7.399 8.588,-9.173 10.156,4.363 21.349,6.784 33.105,6.784 11.757,0 22.949,-2.419 33.108,-6.784 3.076,1.774 6.2,4.99 8.585,9.173 2.498,4.379 3.672,8.914 3.506,12.552 -6.054,6.053 -9.798,14.415 -9.798,23.652 0,18.47 14.973,33.445 33.445,33.445 C -3.545,0.433 -1.751,0.283 0,0"
             style="fill:#c43322;fill-opacity:1;fill-rule:evenodd;stroke:none"
             id="path2310" />
        </g>
        <g
           id="g2312"
           transform="translate(312.417,614.0693)">
          <path
             d="m 0,0 h 0.004 c 24.997,0 45.45,-20.451 45.45,-45.449 v -295.193 c 0,-24.996 -20.453,-45.449 -45.45,-45.449 H 0 c -24.996,0 -45.449,20.453 -45.449,45.449 V -45.449 C -45.449,-20.451 -24.996,0 0,0"
             style="fill:#f25534;fill-opacity:1;fill-rule:evenodd;stroke:none"
             id="path2314" />
        </g>
        <g
           id="g2316"
           transform="translate(394.1445,463.0576)">
          <path
             d="m 0,0 -16.464,9.387 -1.255,-2.202 c 0.365,-3.747 -0.793,-8.596 -3.457,-13.267 -2.664,-4.673 -6.248,-8.138 -9.659,-9.732 l -0.966,-1.695 16.463,-9.387 1.014,1.774 c -0.331,3.729 0.829,8.531 3.468,13.156 2.636,4.625 6.175,8.068 9.555,9.683 z"
             style="fill:#adda1a;fill-opacity:1;fill-rule:evenodd;stroke:none"
             id="path2318" />
        </g>
        <g
           id="g2320"
           transform="translate(400.124,459.7354)">
          <path
             d="M 0,0 C 18.42,0 33.444,15.023 33.444,33.442 33.444,51.864 18.42,66.89 0,66.89 -18.422,66.89 -33.444,51.864 -33.444,33.442 -33.444,15.023 -18.422,0 0,0"
             style="fill:#c6e446;fill-opacity:1;fill-rule:evenodd;stroke:none"
             id="path2322" />
        </g>
        <g
           id="g2324"
           transform="translate(400.1221,467.6904)">
          <path
             d="M 0,0 C 14.038,0 25.49,11.451 25.49,25.487 25.49,39.528 14.038,50.978 0,50.978 -14.039,50.978 -25.488,39.528 -25.488,25.487 -25.488,11.451 -14.039,0 0,0"
             style="fill:#ffffff;fill-opacity:1;fill-rule:evenodd;stroke:none"
             id="path2326" />
        </g>
        <g
           id="g2328"
           transform="translate(400.1221,475.3535)">
          <path
             d="m 0,0 c 9.819,0 17.828,8.007 17.828,17.824 0,9.821 -8.009,17.829 -17.828,17.829 -9.817,0 -17.826,-8.008 -17.826,-17.829 C -17.826,8.007 -9.817,0 0,0"
             style="fill:#1c1a19;fill-opacity:1;fill-rule:evenodd;stroke:none"
             id="path2330" />
        </g>
        <g
           id="g2332"
           transform="translate(391.2432,494.3271)">
          <path
             d="m 0,0 c 4.489,0 8.15,3.663 8.15,8.15 0,4.492 -3.661,8.153 -8.15,8.153 -4.492,0 -8.152,-3.661 -8.152,-8.153 C -8.152,3.663 -4.492,0 0,0"
             style="fill:#ffffff;fill-opacity:1;fill-rule:evenodd;stroke:none"
             id="path2334" />
        </g>
        <g
           id="g2336"
           transform="translate(268.4092,463.0576)">
          <path
             d="m 0,0 16.464,9.387 1.255,-2.202 c -0.364,-3.747 0.793,-8.596 3.457,-13.267 2.664,-4.673 6.248,-8.138 9.657,-9.732 l 0.968,-1.695 -16.463,-9.387 -1.012,1.774 c 0.331,3.729 -0.83,8.531 -3.468,13.156 -2.636,4.625 -6.176,8.068 -9.554,9.683 z"
             style="fill:#adda1a;fill-opacity:1;fill-rule:evenodd;stroke:none"
             id="path2338" />
        </g>
        <g
           id="g2340"
           transform="translate(262.4326,459.7354)">
          <path
             d="M 0,0 C 18.421,0 33.446,15.023 33.446,33.442 33.446,51.864 18.421,66.89 0,66.89 -18.42,66.89 -33.443,51.864 -33.443,33.442 -33.443,15.023 -18.42,0 0,0"
             style="fill:#c6e446;fill-opacity:1;fill-rule:evenodd;stroke:none"
             id="path2342" />
        </g>
        <g
           id="g2344"
           transform="translate(262.4326,467.6904)">
          <path
             d="M 0,0 C 14.04,0 25.487,11.451 25.487,25.487 25.487,39.528 14.04,50.978 0,50.978 -14.037,50.978 -25.488,39.528 -25.488,25.487 -25.488,11.451 -14.037,0 0,0"
             style="fill:#ffffff;fill-opacity:1;fill-rule:evenodd;stroke:none"
             id="path2346" />
        </g>
        <g
           id="g2348"
           transform="translate(262.4326,475.3535)">
          <path
             d="m 0,0 c 9.819,0 17.828,8.007 17.828,17.824 0,9.821 -8.009,17.829 -17.828,17.829 -9.82,0 -17.827,-8.008 -17.827,-17.829 C -17.827,8.007 -9.82,0 0,0"
             style="fill:#1c1a19;fill-opacity:1;fill-rule:evenodd;stroke:none"
             id="path2350" />
        </g>
        <g
           id="g2352"
           transform="translate(253.5537,494.3271)">
          <path
             d="m 0,0 c 4.489,0 8.15,3.663 8.15,8.15 0,4.492 -3.661,8.153 -8.15,8.153 -4.492,0 -8.153,-3.661 -8.153,-8.153 C -8.153,3.663 -4.492,0 0,0"
             style="fill:#ffffff;fill-opacity:1;fill-rule:evenodd;stroke:none"
             id="path2354" />
        </g>
        <g
           id="g2356"
           transform="translate(288.2568,376.0498)">
          <path
             d="m 0,0 h 86.042 v -75.644 c -9.865,-12.404 -16.205,-31.719 -16.205,-53.42 0,-21.701 6.34,-41.017 16.205,-53.422 V -213.34 H 0 v 31.229 c 9.695,12.417 15.91,31.563 15.91,53.047 0,21.483 -6.215,40.628 -15.91,53.045 z"
             style="fill:#9ac421;fill-opacity:1;fill-rule:evenodd;stroke:none"
             id="path2358" />
        </g>
        <g
           id="g2360"
           transform="translate(331.2783,206.9092)">
          <path
             d="m 0,0 c 7.917,0 15.348,-2.081 21.774,-5.728 8.855,-5.024 18.905,-5.024 27.759,0 C 55.96,-2.081 63.391,0 71.308,0 c 24.412,0 44.201,-19.789 44.201,-44.199 0,-24.411 -19.789,-44.199 -44.201,-44.199 -7.917,0 -15.348,2.082 -21.775,5.728 -8.854,5.023 -18.904,5.023 -27.759,0 C 15.348,-86.316 7.917,-88.398 0,-88.398 c -7.918,0 -15.348,2.082 -21.775,5.728 -8.854,5.025 -18.907,5.025 -27.761,0 -6.427,-3.646 -13.857,-5.728 -21.774,-5.728 -24.411,0 -44.2,19.788 -44.2,44.199 0,24.41 19.789,44.199 44.2,44.199 7.917,0 15.347,-2.081 21.774,-5.728 8.854,-5.024 18.907,-5.024 27.761,0 C -15.348,-2.081 -7.918,0 0,0"
             style="fill:#adda1a;fill-opacity:1;fill-rule:evenodd;stroke:none"
             id="path2362" />
        </g>
        <g
           id="g2364"
           transform="translate(385.4961,198.2441)">
          <path
             d="m 0,0 c -10.417,-2.832 -18.858,-12.518 -18.858,-21.633 0,-9.112 8.441,-14.203 18.858,-11.37 10.415,2.832 18.857,12.519 18.857,21.633 C 18.857,-2.258 10.415,2.833 0,0"
             style="fill:#c6e446;fill-opacity:1;fill-rule:evenodd;stroke:none"
             id="path2366" />
        </g>
        <g
           id="g2368"
           transform="translate(244.0537,198.2441)">
          <path
             d="m 0,0 c -10.415,-2.832 -18.856,-12.518 -18.856,-21.633 0,-9.112 8.441,-14.203 18.856,-11.37 10.417,2.832 18.861,12.519 18.861,21.633 C 18.861,-2.258 10.417,2.833 0,0"
             style="fill:#c6e446;fill-opacity:1;fill-rule:evenodd;stroke:none"
             id="path2370" />
        </g>
        <g
           id="g2372"
           transform="translate(314.7773,198.2441)">
          <path
             d="m 0,0 c -10.417,-2.832 -18.861,-12.518 -18.861,-21.633 0,-9.112 8.444,-14.203 18.861,-11.37 10.415,2.832 18.857,12.519 18.857,21.633 C 18.857,-2.258 10.415,2.833 0,0"
             style="fill:#c6e446;fill-opacity:1;fill-rule:evenodd;stroke:none"
             id="path2374" />
        </g>
        <g
           id="g2376"
           transform="translate(331.2783,286.626)">
          <path
             d="m 0,0 c 46.255,0 83.978,37.724 83.978,83.978 0,46.256 -37.723,83.982 -83.978,83.982 -46.256,0 -83.981,-37.726 -83.981,-83.982 C -83.981,37.724 -46.256,0 0,0"
             style="fill:#c6e446;fill-opacity:1;fill-rule:evenodd;stroke:none"
             id="path2378" />
        </g>
        <g
           id="g2380"
           transform="translate(386.8389,337.1748)">
          <path
             d="m 0,0 c -11.35,-18.819 -31.983,-31.405 -55.561,-31.405 -23.577,0 -44.213,12.586 -55.561,31.405 16.039,-6.448 35.106,-10.19 55.561,-10.19 20.456,0 39.52,3.742 55.561,10.19"
             style="fill:#ffffff;fill-opacity:1;fill-rule:evenodd;stroke:none"
             id="path2382" />
        </g>
        <g
           id="g2384"
           transform="translate(301.1992,438.21)">
          <path
             d="m 0,0 c -19.073,-5.19 -34.534,-22.923 -34.534,-39.615 0,-16.689 15.461,-26.011 34.534,-20.822 19.073,5.189 34.535,22.926 34.535,39.614 C 34.535,-4.133 19.073,5.187 0,0"
             style="fill:#d9eb60;fill-opacity:1;fill-rule:evenodd;stroke:none"
             id="path2386" />
        </g>
      </g>
    </g>
  </g>
</svg>
