<?xml version="1.0" encoding="UTF-8"?> <!-- Generator: Adobe Illustrator 22.1.0, SVG Export Plug-In . SVG Version: 6.00 Build 0) --> <svg xmlns="http://www.w3.org/2000/svg" xmlns:xlink="http://www.w3.org/1999/xlink" id="Layer_1" x="0px" y="0px" width="808.5px" height="119.4px" viewBox="0 0 808.5 119.4" style="enable-background:new 0 0 808.5 119.4;" xml:space="preserve"> <style type="text/css"> .st0{fill:#086DB3;} .st1{fill:#1D1D1D;} </style> <g> <g> <g> <path class="st0" d="M125.7,14.8l1.5,29.2h-6.1c-4.4-9.4-7.8-15.4-10.2-18.1c-2.2-2.4-5-3.9-8.4-4.7c-2.3-0.5-5.3-0.8-8.8-0.8H78 v35.7l9.7-0.2c3.4-0.1,5.8-0.7,7.4-1.9c2-1.5,3.6-4.4,4.9-8.7l1.9-6.8h4.6v41.3H102l-2-7.2c-1.2-4.2-2.9-7.1-4.9-8.6 c-1.7-1.2-4.4-1.9-8.1-2.1L78,61.6v28.8c0,4.1,0.1,6.6,0.3,7.5c0.4,3.3,3.3,5.3,8.8,6.1l5.7,0.6v4.6H45.6v-4.6l4.4-0.6 c3.9-0.5,6.4-1.5,7.6-3.2c0.8-0.9,1.3-2.6,1.5-5c0-1.2,0.1-3,0.1-5.5V33.6c0-4.1-0.1-6.6-0.3-7.6c-0.5-3.2-3.4-5.2-8.8-6 l-4.4-0.6v-4.6L125.7,14.8L125.7,14.8z M162.4,103.7h11.2c5.6-0.1,9.6-1,11.8-2.8c2.8-2.3,5.3-5.9,7.5-11l3.5-7.8h4.4l-2.4,27.1 h-64.3v-4.2l3.1-0.3c4.9-0.6,7.7-2.4,8.2-5.3c0.3-1,0.5-4,0.6-8.8V56.1c-0.1-5.2-0.3-8.4-0.8-9.6c-0.8-2.4-3.5-3.9-8-4.5 l-3.1-0.3v-4.2h40.2v4.2l-3,0.3c-4.9,0.6-7.7,2.4-8.3,5.3c-0.2,0.9-0.4,3.8-0.6,8.8L162.4,103.7L162.4,103.7z M306.7,90.4V56.1 c-0.1-5.2-0.3-8.4-0.8-9.6c-0.8-2.4-3.5-3.9-8-4.5l-3.1-0.3v-4.2H335v4.2l-3,0.3c-4.9,0.6-7.7,2.4-8.3,5.3 c-0.2,0.9-0.4,3.8-0.6,8.8l0,34.3c0.1,5.3,0.4,8.5,0.8,9.6c0.8,2.5,3.5,4,8.1,4.6l3,0.3v4.2h-40.2v-4.2l3.1-0.3 c4.9-0.6,7.7-2.4,8.2-5.3C306.4,98.2,306.6,95.3,306.7,90.4L306.7,90.4z M368.6,70.5h6.8c5.4,0,9.5-1.2,12.2-3.7 c3.1-2.8,4.7-6.5,4.7-11.1v-0.3l0-0.3l0-0.3l0-0.3l0-0.3l0-0.2l0-0.2l0-0.2l0-0.2l0-0.2l0-0.2l0-0.2l0-0.2l0-0.2l0-0.2l0-0.2 l-0.1-0.2l-0.1-0.2l-0.1-0.2l-0.1-0.2l-0.1-0.2l-0.1-0.2l-0.1-0.2l-0.1-0.2l-0.1-0.2l-0.1-0.2l-0.1-0.2l-0.1-0.2l-0.1-0.2L391,49 l-0.1-0.2l-0.1-0.2l-0.1-0.2l-0.1-0.2l-0.1-0.2l-0.1-0.2l-0.1-0.2l-0.1-0.2l-0.1-0.2l-0.1-0.2l-0.1-0.2l-0.1-0.2l-0.1-0.2 l-0.1-0.1l-0.1-0.1l-0.1-0.1l-0.1-0.1l-0.1-0.1l-0.1-0.1l-0.1-0.1l-0.2-0.1l-0.2-0.1l-0.2-0.1l-0.2-0.1l-0.2-0.1l-0.2-0.1 l-0.2-0.1l-0.2-0.1l-0.2-0.1l-0.2-0.1l-0.2-0.1l-0.2-0.1l-0.2-0.1l-0.2-0.1c-2.1-1-6-1.5-11.7-1.5c-1.8,0-3.8,0-5.8,0.1 L368.6,70.5L368.6,70.5z M368.6,75.8v14.6c0.1,5.3,0.4,8.5,0.8,9.6c0.8,2.5,3.5,4,8.1,4.6l3,0.3v4.2h-40.2v-4.2l3.1-0.3 c4.9-0.6,7.7-2.4,8.2-5.3c0.3-1,0.5-4,0.6-8.8V56.1c-0.1-5.2-0.3-8.4-0.8-9.6c-0.8-2.4-3.5-3.9-8-4.5l-3.1-0.3v-4.2l44-0.1 c7.9,0,13.9,1.3,17.9,3.9c4.9,3.3,7.4,7.8,7.4,13.4c0,9.8-6.7,15.8-20.1,18c3.5,0.6,6.6,2.1,9.2,4.4c1.6,1.4,3,3.6,4.1,6.6 c0.4,0.9,1.1,3.5,2.3,7.6c1.8,6.5,3.3,10.4,4.6,11.8c0.9,1,2.1,1.5,3.6,1.5c1.2,0,2.4-0.1,3.7-0.3l0.7,4.1 c-4.4,1.2-8.2,1.7-11.4,1.7c-7.1,0-12.3-2.7-15.3-8c-1.1-1.9-2.9-7.5-5.5-16.8c-0.6-2.3-1.3-4.1-2.1-5.3 c-0.7-1.2-1.7-2.1-2.9-2.7c-1.8-1-4.1-1.5-7.2-1.5L368.6,75.8L368.6,75.8z M12.2,90.4V56.1c-0.1-5.2-0.3-8.4-0.8-9.6 c-0.8-2.4-3.5-3.9-8-4.5l-3.1-0.3v-4.2h40.2v4.2l-3,0.3c-4.9,0.6-7.7,2.4-8.3,5.3c-0.2,0.9-0.4,3.8-0.6,8.8v34.3 c0.1,5.3,0.4,8.5,0.8,9.6c0.8,2.5,3.5,4,8.1,4.6l3,0.3v4.2H0.3v-4.2l3.1-0.3c4.9-0.6,7.7-2.4,8.2-5.3 C11.9,98.2,12.1,95.3,12.2,90.4L12.2,90.4z M238,43.2l2.5-5.8h12.2l24.5,57.7c1.7,4,3.2,6.5,4.5,7.6c1.3,1,3.8,1.7,7.4,2.2v4.2 h-38.9v-4.2c2.3-0.1,4.1-0.3,5.5-0.7c2.8-0.7,4.2-2.1,4.2-4.2c0-1.4-0.5-3.4-1.6-6.1l-4-9.9l-2.1-5.4l-11.1-27.5L238,43.2 L238,43.2z M238.5,57.7l-3.2-8.1l-15.8,36.5c-2.1,4.6-3.5,7.9-4.2,9.5c-2,4.3-4.1,7-6.5,8.1c-1.2,0.5-2.8,0.9-5,1.2v4.2h27.9 v-4.2c-2.4-0.2-4.3-0.4-5.5-0.8c-2.5-0.6-3.7-2.1-3.7-4.2c0-1.8,0.5-4,1.6-6.6l3.7-9.3h21.4l-2.2-5.4h-16.9L238.5,57.7z"></path> <path class="st0" d="M406.2,110.4c-7.2,0-12.5-2.7-15.6-8.2c-1.1-1.9-2.9-7.6-5.6-16.9c-0.6-2.3-1.3-4.1-2-5.2 c-0.7-1.1-1.7-2-2.8-2.6c-1.7-0.9-4.1-1.4-7.1-1.4h-4.3v14.3c0.1,5.2,0.4,8.4,0.7,9.5c0.8,2.4,3.4,3.8,7.9,4.4l3.3,0.4v4.7h-40.7 v-4.7l3.3-0.4c4.8-0.6,7.5-2.3,8-5.1c0.3-1,0.5-4,0.5-8.8V56.1c-0.1-5.1-0.3-8.3-0.7-9.5c-0.8-2.3-3.4-3.8-7.8-4.3l-3.3-0.4v-4.7 l44.2-0.1c7.9,0,14,1.3,18.1,4c5,3.4,7.5,7.9,7.5,13.6c0,9.6-6.4,15.7-19,18.1c3,0.7,5.7,2.1,8,4.1c1.6,1.4,3,3.7,4.2,6.7 c0.4,0.9,1.1,3.4,2.3,7.6c1.7,6.4,3.2,10.4,4.5,11.7c0.9,0.9,2,1.4,3.4,1.4c1.2,0,2.4-0.1,3.7-0.3l0.3,0l0.8,4.7l-0.2,0.1 C413.3,109.8,409.4,110.4,406.2,110.4z M368.4,75.5h4.8c3.1,0,5.5,0.5,7.3,1.5c1.2,0.7,2.2,1.6,3,2.8c0.7,1.2,1.5,3,2.1,5.4 c2.6,9.2,4.5,14.8,5.5,16.7c3,5.2,8.1,7.9,15.1,7.9c3.1,0,6.8-0.6,11.1-1.7l-0.6-3.6c-1.2,0.2-2.4,0.3-3.5,0.3 c-1.5,0-2.8-0.5-3.8-1.5c-1.3-1.4-2.8-5.3-4.6-11.9c-1.1-4.1-1.9-6.7-2.3-7.6c-1.1-2.9-2.4-5.1-4-6.5c-2.5-2.3-5.6-3.7-9.1-4.3 l0-0.5c13.2-2.2,19.9-8.2,19.9-17.8c0-5.5-2.4-9.9-7.3-13.2c-3.9-2.6-9.9-3.9-17.8-3.9l-43.7,0.1v3.7l2.9,0.3 c4.6,0.6,7.4,2.1,8.2,4.7c0.4,1.3,0.7,4.4,0.8,9.7v34.3c-0.1,5-0.3,7.9-0.6,8.9c-0.6,3-3.4,4.9-8.4,5.5l-2.9,0.3v3.7h39.6v-3.7 l-2.8-0.3c-4.7-0.6-7.4-2.2-8.3-4.7c-0.4-1.1-0.6-4.3-0.8-9.7L368.4,75.5L368.4,75.5z M335.2,109.4h-40.7v-4.7l3.3-0.4 c4.8-0.6,7.5-2.3,8-5.1c0.3-1,0.5-4,0.5-8.8V56.1c-0.1-5.1-0.3-8.3-0.8-9.5c-0.8-2.3-3.4-3.8-7.8-4.3l-3.3-0.4v-4.7h40.7v4.7 l-3.3,0.4c-4.8,0.6-7.5,2.3-8.1,5c-0.2,0.9-0.4,3.8-0.5,8.8l0,34.3c0.1,5.2,0.4,8.4,0.7,9.5c0.8,2.4,3.4,3.8,7.9,4.4l3.3,0.4 V109.4z M295.1,108.9h39.6v-3.7l-2.8-0.3c-4.7-0.6-7.4-2.2-8.3-4.7c-0.4-1.1-0.6-4.3-0.8-9.7l0-34.3c0.1-5.1,0.3-8,0.6-8.9 c0.6-3,3.5-4.8,8.5-5.5l2.8-0.3v-3.7h-39.6v3.7l2.9,0.3c4.6,0.6,7.4,2.1,8.2,4.7c0.4,1.3,0.7,4.4,0.8,9.7v34.3 c-0.1,5-0.3,7.9-0.6,8.9c-0.6,3-3.4,4.9-8.4,5.5l-2.9,0.3L295.1,108.9L295.1,108.9z M289.4,109.4H250v-4.7l0.3,0 c2.2-0.1,4.1-0.3,5.5-0.7c2.7-0.7,4-2,4-4c0-1.3-0.5-3.4-1.6-6l-4-9.9l-2.1-5.4l-14.3-35.5l2.6-6.1h12.5l0.1,0.2L277.5,95 c1.7,3.9,3.2,6.5,4.4,7.5c1.3,0.9,3.7,1.7,7.3,2.2l0.2,0L289.4,109.4L289.4,109.4z M250.5,108.9h38.3v-3.7 c-3.5-0.5-5.9-1.2-7.3-2.2c-1.4-1.1-2.8-3.6-4.6-7.7l-24.5-57.6h-11.8l-2.4,5.6l3.2,7.8l17.2,42.8c1.1,2.7,1.6,4.8,1.6,6.2 c0,2.2-1.5,3.8-4.4,4.5c-1.4,0.4-3.2,0.6-5.3,0.7L250.5,108.9L250.5,108.9z M232,109.4h-28.5v-4.7l0.2,0c2.1-0.3,3.8-0.7,4.9-1.2 c2.3-1,4.4-3.7,6.4-8c0.8-1.9,2.4-5.4,4.2-9.5l16.1-37.1l3.5,8.8l-8.3,20.7h16.7l2.4,5.9h-21.6l-3.7,9.1c-1,2.6-1.6,4.8-1.6,6.5 c0,2.1,1.2,3.3,3.5,4c1.2,0.3,3.1,0.6,5.5,0.8l0.2,0L232,109.4L232,109.4z M204,108.9h27.4v-3.7c-2.3-0.2-4.1-0.4-5.3-0.7 c-2.6-0.7-3.9-2.2-3.9-4.5c0-1.8,0.5-4,1.6-6.7l3.8-9.4h21.2l-2-4.9h-17.1l8.5-21.2l-3-7.4l-15.6,35.9c-1.8,4-3.4,7.6-4.2,9.5 c-2,4.4-4.2,7.1-6.6,8.2c-1.1,0.5-2.7,0.9-4.8,1.2L204,108.9L204,108.9z M198.6,109.4h-64.8v-4.7l3.3-0.4c4.8-0.6,7.5-2.3,8-5.1 c0.3-1,0.5-4,0.5-8.8V56.1c-0.1-5.1-0.3-8.3-0.7-9.5c-0.8-2.3-3.4-3.8-7.8-4.3l-3.3-0.4v-4.7h40.7v4.7l-3.3,0.4 c-4.8,0.6-7.5,2.3-8.1,5c-0.2,0.9-0.4,3.8-0.5,8.8v47.3h10.9c5.5-0.1,9.5-1,11.7-2.8c2.7-2.2,5.2-5.9,7.5-10.9l3.5-8h4.9 L198.6,109.4z M134.3,108.9h63.8l2.4-26.6h-4l-3.4,7.7c-2.3,5.1-4.8,8.8-7.6,11.1c-2.3,1.8-6.3,2.8-12,2.9h-11.5V56.1 c0.1-5.1,0.3-8,0.6-8.9c0.6-3,3.5-4.8,8.5-5.4l2.8-0.3v-3.7h-39.6v3.7l2.9,0.3c4.6,0.6,7.4,2.1,8.2,4.7c0.4,1.3,0.7,4.4,0.8,9.7 v34.3c-0.1,5-0.3,7.9-0.6,8.9c-0.6,3-3.4,4.9-8.4,5.5l-2.9,0.3L134.3,108.9L134.3,108.9z M93.2,109.4H45.4v-5.1l4.7-0.6 c3.8-0.4,6.3-1.5,7.4-3.1c0.8-0.9,1.3-2.5,1.4-4.8c0-1.2,0.1-3.1,0.1-5.4V33.6c0-4-0.1-6.6-0.3-7.5c-0.4-3.1-3.3-5.1-8.6-5.8 l-4.7-0.6v-5.1H126l0,0.3l1.5,29.5H121l-0.1-0.2c-4.3-9.3-7.8-15.4-10.1-18c-2.2-2.3-5-3.9-8.3-4.6c-2.3-0.5-5.2-0.8-8.8-0.8 H78.3v35.1l9.4-0.2c3.3-0.1,5.7-0.7,7.2-1.9c1.9-1.5,3.5-4.4,4.8-8.6l2-7h5.1v41.8h-5.1l-2.1-7.4c-1.2-4.2-2.8-7-4.8-8.5 c-1.6-1.2-4.3-1.9-7.9-2l-8.6-0.2v28.5c0,4,0.1,6.5,0.3,7.5c0.4,3.2,3.3,5.2,8.6,5.9l5.9,0.6L93.2,109.4L93.2,109.4z M45.9,108.9 h46.8v-4.1l-5.4-0.5c-5.7-0.8-8.7-2.9-9.1-6.3c-0.2-1-0.3-3.4-0.3-7.6v-29l9.2,0.2c3.8,0.1,6.5,0.9,8.2,2.1 c2.1,1.5,3.7,4.5,5,8.8l2,7h4.2V38.7h-4.2l-1.9,6.7c-1.3,4.3-3,7.3-5,8.8c-1.6,1.2-4.1,1.9-7.6,2l-10,0.2V20.2h16 c3.6,0,6.6,0.3,8.9,0.8c3.4,0.8,6.3,2.4,8.6,4.8c2.4,2.7,5.8,8.7,10.1,18h5.6L125.5,15H45.9v4.1l4.2,0.5c5.5,0.8,8.5,2.9,9,6.2 c0.2,1,0.3,3.5,0.3,7.6v56.8c0,2.4,0,4.2-0.1,5.5c-0.1,2.5-0.7,4.2-1.5,5.1c-1.2,1.7-3.8,2.8-7.8,3.3l-4.2,0.5V108.9z M40.7,109.4H0v-4.7l3.3-0.4c4.8-0.6,7.5-2.3,8-5.1c0.3-1,0.5-4,0.5-8.8V56.1c-0.1-5.1-0.3-8.3-0.7-9.5c-0.8-2.3-3.4-3.8-7.8-4.3 L0,41.9v-4.7h40.7v4.7l-3.3,0.4c-4.8,0.6-7.5,2.3-8.1,5c-0.2,0.9-0.4,3.8-0.5,8.8v34.3c0.1,5.2,0.4,8.4,0.7,9.5 c0.8,2.4,3.4,3.8,7.9,4.4l3.3,0.4L40.7,109.4z M0.5,108.9h39.6v-3.7l-2.8-0.3c-4.7-0.6-7.4-2.2-8.3-4.7c-0.4-1.1-0.6-4.3-0.8-9.7 V56.1c0.1-5.1,0.3-8,0.6-8.9c0.6-3,3.5-4.8,8.5-5.5l2.8-0.3v-3.7H0.5v3.7l2.9,0.3c4.6,0.6,7.4,2.1,8.2,4.7 c0.4,1.3,0.7,4.5,0.8,9.7v34.3c-0.1,5-0.3,7.9-0.6,8.9c-0.6,3-3.4,4.9-8.4,5.5l-2.9,0.3L0.5,108.9z M375.5,70.8h-7.1V42.7l0.3,0 c2-0.1,4-0.1,5.8-0.1c5.7,0,9.6,0.5,11.8,1.5l1.7,1l1.4,1.2l1.1,1.3l0.9,1.4l0.7,1.8l0.5,2l0.2,2.7v0.3c0,4.7-1.6,8.5-4.8,11.3 C385.1,69.5,380.9,70.8,375.5,70.8z M368.9,70.2h6.6c5.3,0,9.4-1.2,12.1-3.6c3.1-2.7,4.6-6.4,4.6-10.9l-0.2-2.7l-0.5-2.2 l-0.8-1.9l-1-1.5l-1.2-1.3l-1.4-1.1l-1.1-0.6c-2.1-1-6-1.5-11.6-1.5c-1.8,0-3.6,0-5.5,0.1L368.9,70.2L368.9,70.2z"></path> </g> <circle class="st1" cx="20.3" cy="20.9" r="11.7"></circle> <path class="st1" d="M329.3,15.6c0-4.1-1.5-7.6-4.5-10.6c-3-2.9-6.5-4.4-10.5-4.4l-1.6,3.4l1.8,0.4l1.4-1.4l2.4,0.2l0.5,1.3 l-1.5,1.5V7l0.9,0.2l0.4-0.7l1.6-1l0,0.7l0.6,1.1L320.1,8l0.5,0.4l-1.1,0.1l0.4,0.9l-2.3,1.1l0.4,1.3h-0.7l-0.3-1.3l-1.7,0 l-0.3,0.5l-0.7-0.3l-1.1,1.2l0.9,1.1l0,1.2l1,0.7l5.6,0.6l1.8,1.3l-0.2,3.2l-3.9,3.9c-0.3,0.3-0.5,1-0.7,2.1 c-0.2,1.1-0.3,1.9-0.2,2.3l-0.6,0.7c-0.5-0.9-1.1-2.3-1.8-4.2c-0.2-0.7-0.3-1.5-0.5-2.5c-0.1-0.8-0.2-1.7-0.3-2.5l-2.4-2.2 l2.2-2.6l-0.9-1.3c-1.4-0.3-2.3-0.5-2.7-0.8c-0.4-0.2-1.1-0.9-2.1-1.9l0.8,1.7l-0.6,0.3l-1.3-2.5l0.3-2.4l-0.4-1.7l-1.3-1.3 l-0.9-0.2l-0.8,0.6L303,5.8c-2.5,2.9-3.7,6.2-3.7,10c0,4.2,1.5,7.8,4.4,10.7c2.9,2.9,6.5,4.4,10.6,4.4s7.7-1.5,10.6-4.4 C327.8,23.4,329.3,19.8,329.3,15.6L329.3,15.6z M330.1,15.7c0,4.4-1.6,8.2-4.7,11.3c-3.1,3.1-6.8,4.7-11.2,4.7s-8-1.5-11.1-4.6 c-3.1-3.1-4.7-6.8-4.7-11.2c0-4.4,1.6-8.2,4.7-11.3C306.3,1.5,310,0,314.3,0s8,1.5,11.1,4.5C328.6,7.6,330.1,11.3,330.1,15.7z"></path> </g> <g> <path class="st1" d="M447,110.7v-27h-9.7v-3.1h22.9v3.1h-9.7v27L447,110.7L447,110.7z"></path> <path class="st1" d="M469.3,89.1c1.8,0,3.3,0.3,4.7,0.9c1.3,0.6,2.5,1.4,3.4,2.4c0.9,1,1.6,2.2,2,3.5c0.5,1.3,0.7,2.8,0.7,4.3 c0,1.5-0.2,2.9-0.7,4.2c-0.5,1.3-1.2,2.5-2.1,3.5c-0.9,1-2,1.8-3.4,2.4c-1.3,0.6-2.9,0.9-4.6,0.9c-1.8,0-3.3-0.3-4.7-0.9 s-2.5-1.4-3.4-2.4c-0.9-1-1.6-2.2-2.1-3.5c-0.5-1.3-0.7-2.8-0.7-4.3c0-1.5,0.2-3,0.7-4.3c0.5-1.4,1.2-2.5,2.1-3.5 c0.9-1,2.1-1.8,3.4-2.4C466,89.4,467.6,89.1,469.3,89.1z M476.5,100.2c0-1.1-0.1-2.2-0.4-3.2c-0.3-1-0.7-1.9-1.3-2.7 c-0.6-0.8-1.3-1.4-2.3-1.8s-2-0.7-3.2-0.7c-1.2,0-2.3,0.2-3.2,0.7c-0.9,0.5-1.7,1.1-2.3,1.9s-1.1,1.7-1.4,2.7 c-0.3,1-0.5,2.1-0.5,3.2c0,1.1,0.2,2.1,0.5,3.1c0.3,1,0.8,1.9,1.4,2.6s1.4,1.4,2.3,1.8s2,0.7,3.2,0.7c1.2,0,2.3-0.2,3.2-0.7 c0.9-0.5,1.6-1.1,2.2-1.8c0.6-0.8,1-1.6,1.3-2.6C476.3,102.3,476.5,101.3,476.5,100.2z"></path> <path class="st1" d="M486.2,114.6c1.1,0.7,2.2,1.2,3.4,1.5c1.2,0.3,2.4,0.5,3.5,0.5c1.2,0,2.3-0.1,3.2-0.4c1-0.3,1.8-0.7,2.4-1.2 c0.7-0.6,1.2-1.3,1.5-2.1s0.5-1.9,0.5-3.1v-2.6c-0.8,1.2-1.9,2.1-3.1,2.7c-1.3,0.6-2.6,0.9-4.1,0.9c-1.5,0-2.9-0.3-4.1-0.8 c-1.2-0.5-2.2-1.2-3-2.1c-0.8-0.9-1.5-2-1.9-3.3c-0.4-1.3-0.7-2.7-0.7-4.3c0-1.5,0.2-2.9,0.6-4.3c0.4-1.4,1-2.5,1.9-3.5 c0.8-1,1.9-1.8,3.1-2.4c1.2-0.6,2.7-0.9,4.3-0.9c1.6,0,3,0.3,4.1,0.9c1.1,0.6,2.1,1.4,2.9,2.5c0-0.2,0-0.5,0-0.9c0-0.3,0-0.7,0-1 c0-0.4,0-0.7,0.1-1.1h3.4c0,0.7,0,1.3-0.1,2c0,0.6,0,1.1-0.1,1.7c0,0.6,0,1.1,0,1.5v12.9c0,0.9-0.1,1.9-0.2,2.8 c-0.1,0.9-0.3,1.8-0.6,2.7c-0.3,0.9-0.7,1.7-1.2,2.4c-0.5,0.8-1.2,1.4-2,2c-0.8,0.6-1.8,1-2.9,1.3c-1.1,0.3-2.5,0.5-4,0.5 c-1.4,0-2.7-0.1-4-0.4s-2.5-0.7-3.6-1.3L486.2,114.6z M500.9,99.4c0-1-0.2-2-0.5-3c-0.3-0.9-0.7-1.7-1.3-2.4 c-0.6-0.7-1.3-1.2-2.1-1.6c-0.8-0.4-1.7-0.6-2.7-0.6c-1.1,0-2.1,0.2-2.9,0.7c-0.8,0.4-1.6,1.1-2.1,1.8c-0.6,0.8-1,1.6-1.3,2.7 c-0.3,1-0.4,2.1-0.4,3.2c0,1.2,0.1,2.3,0.3,3.2c0.2,1,0.6,1.8,1.1,2.5c0.5,0.7,1.2,1.2,2.1,1.6c0.9,0.4,1.9,0.6,3.2,0.6 c1.2,0,2.3-0.2,3.1-0.7c0.9-0.5,1.5-1.1,2.1-1.9c0.5-0.8,0.9-1.7,1.1-2.7S500.9,100.5,500.9,99.4z"></path> <path class="st1" d="M529.1,108.4c-1.1,1-2.4,1.7-3.8,2.2c-1.4,0.5-3,0.7-4.7,0.7c-1.7,0-3.1-0.3-4.5-0.8 c-1.3-0.5-2.4-1.3-3.3-2.3c-0.9-1-1.6-2.1-2.1-3.5c-0.5-1.3-0.7-2.8-0.7-4.4c0-1.5,0.2-3,0.7-4.3c0.5-1.3,1.1-2.5,2-3.5 s2-1.8,3.3-2.4c1.3-0.6,2.8-0.9,4.4-0.9c1.6,0,3,0.3,4.2,0.8c1.2,0.5,2.2,1.3,2.9,2.2c0.8,0.9,1.3,2,1.7,3.3 c0.4,1.3,0.6,2.7,0.6,4.2c0,0.2,0,0.3,0,0.5c0,0.2,0,0.4,0,0.5h-16.2l0.1,0.9c0.1,1,0.3,2,0.6,2.8c0.3,0.9,0.8,1.6,1.4,2.2 c0.6,0.6,1.3,1.1,2.2,1.4c0.8,0.3,1.8,0.5,2.9,0.5c1.5,0,2.8-0.3,4-0.8c1.2-0.5,2.3-1.2,3.3-2.2L529.1,108.4z M526.3,98.2l0-0.3 c-0.1-0.9-0.2-1.7-0.5-2.5c-0.3-0.7-0.7-1.4-1.2-1.9c-0.5-0.5-1.1-1-1.8-1.2s-1.5-0.4-2.4-0.4c-1,0-1.8,0.2-2.6,0.5 c-0.8,0.3-1.4,0.8-2,1.4c-0.6,0.6-1,1.3-1.3,2c-0.3,0.8-0.6,1.6-0.7,2.5L526.3,98.2L526.3,98.2z"></path> <path class="st1" d="M536.8,91.8h-4.2v-2.2h4.2l0.1-5.6l3.3-1v6.6h5.3v2.2h-5.3v12.6c0,0.5,0,0.9,0,1.4c0,0.5,0.1,0.9,0.3,1.3 c0.2,0.4,0.4,0.7,0.7,1c0.3,0.3,0.8,0.4,1.4,0.4c0.4,0,0.9-0.1,1.4-0.2c0.5-0.1,1-0.3,1.6-0.5l0,2.5c-0.5,0.3-1,0.5-1.6,0.6 c-0.6,0.1-1.2,0.2-1.9,0.2c-1.2,0-2.1-0.2-2.8-0.6c-0.7-0.4-1.2-0.9-1.6-1.6c-0.4-0.7-0.6-1.4-0.8-2.3c-0.1-0.9-0.2-1.8-0.2-2.8 V91.8z"></path> <path class="st1" d="M553.7,80v12.4c0.9-1.2,1.9-2,3-2.5s2.5-0.8,4.1-0.8c1.5,0,2.8,0.3,3.8,0.8c1,0.5,1.8,1.2,2.4,2 s1,1.7,1.2,2.7c0.2,1,0.3,2,0.3,3.1v13.1h-3.4V97.8c0-0.9-0.1-1.7-0.3-2.4c-0.2-0.7-0.5-1.4-0.9-1.9c-0.4-0.5-0.9-0.9-1.6-1.2 c-0.7-0.3-1.5-0.4-2.5-0.4c-1,0-1.8,0.2-2.6,0.5c-0.8,0.4-1.4,0.9-1.9,1.5c-0.5,0.6-0.9,1.4-1.2,2.2c-0.3,0.8-0.4,1.7-0.4,2.6 v12.1h-3.4V80H553.7z"></path> <path class="st1" d="M593.4,108.4c-1.1,1-2.4,1.7-3.8,2.2c-1.4,0.5-3,0.7-4.7,0.7c-1.7,0-3.1-0.3-4.5-0.8 c-1.3-0.5-2.4-1.3-3.3-2.3s-1.6-2.1-2.1-3.5c-0.5-1.3-0.7-2.8-0.7-4.4c0-1.5,0.2-3,0.7-4.3c0.5-1.3,1.1-2.5,2-3.5 c0.9-1,2-1.8,3.3-2.4c1.3-0.6,2.8-0.9,4.4-0.9c1.6,0,3,0.3,4.2,0.8c1.2,0.5,2.2,1.3,2.9,2.2c0.8,0.9,1.3,2,1.7,3.3 c0.4,1.3,0.6,2.7,0.6,4.2c0,0.2,0,0.3,0,0.5c0,0.2,0,0.4,0,0.5h-16.2l0.1,0.9c0.1,1,0.3,2,0.6,2.8s0.8,1.6,1.4,2.2 c0.6,0.6,1.3,1.1,2.2,1.4s1.8,0.5,2.9,0.5c1.5,0,2.8-0.3,4-0.8c1.2-0.5,2.3-1.2,3.3-2.2L593.4,108.4z M590.6,98.2l0-0.3 c-0.1-0.9-0.2-1.7-0.5-2.5c-0.3-0.7-0.7-1.4-1.2-1.9c-0.5-0.5-1.1-1-1.8-1.2s-1.5-0.4-2.4-0.4c-1,0-1.8,0.2-2.6,0.5 c-0.8,0.3-1.4,0.8-2,1.4c-0.6,0.6-1,1.3-1.3,2c-0.3,0.8-0.6,1.6-0.7,2.5L590.6,98.2L590.6,98.2z"></path> <path class="st1" d="M603,110.7h-3.4V94.7c0-0.9,0-1.7,0-2.6c0-0.9-0.1-1.7-0.1-2.5h3.4l0.1,3.2c0.6-1.2,1.4-2.1,2.3-2.7 c1-0.6,2.1-1,3.3-1c0.8,0,1.5,0.1,2.2,0.2l0,3.2c-0.3-0.2-0.6-0.3-1.1-0.4c-0.4-0.1-0.9-0.1-1.3-0.1c-0.8,0-1.6,0.2-2.3,0.5 c-0.7,0.3-1.3,0.8-1.8,1.4c-0.5,0.6-0.9,1.3-1.1,2.2C603.1,97,603,98,603,99L603,110.7L603,110.7z"></path> <path class="st1" d="M646.7,89.6l-1.3-4.6l-1.4,4.6l-6.7,21.2h-4.4l-8.7-30h3.8l6.4,22.8l0.8,3.3l0.9-3l7.6-23.1h3.7l7.4,22.9 l0.9,3.2l0.7-2.9l6.4-23.2h3.7l-8.7,30h-4.4L646.7,89.6z"></path> <path class="st1" d="M687.4,108.4c-1.1,1-2.4,1.7-3.8,2.2c-1.4,0.5-3,0.7-4.7,0.7c-1.7,0-3.1-0.3-4.5-0.8 c-1.3-0.5-2.4-1.3-3.3-2.3s-1.6-2.1-2.1-3.5c-0.5-1.3-0.7-2.8-0.7-4.4c0-1.5,0.2-3,0.7-4.3c0.5-1.3,1.1-2.5,2-3.5 c0.9-1,2-1.8,3.3-2.4c1.3-0.6,2.8-0.9,4.4-0.9c1.6,0,3,0.3,4.2,0.8c1.2,0.5,2.2,1.3,2.9,2.2c0.8,0.9,1.3,2,1.7,3.3 c0.4,1.3,0.6,2.7,0.6,4.2c0,0.2,0,0.3,0,0.5c0,0.2,0,0.4,0,0.5H672l0.1,0.9c0.1,1,0.3,2,0.6,2.8s0.8,1.6,1.4,2.2 c0.6,0.6,1.3,1.1,2.2,1.4s1.8,0.5,2.9,0.5c1.5,0,2.8-0.3,4-0.8s2.3-1.2,3.3-2.2L687.4,108.4z M684.7,98.2l0-0.3 c-0.1-0.9-0.2-1.7-0.5-2.5c-0.3-0.7-0.7-1.4-1.2-1.9c-0.5-0.5-1.1-1-1.8-1.2c-0.7-0.3-1.5-0.4-2.4-0.4c-1,0-1.8,0.2-2.6,0.5 c-0.8,0.3-1.4,0.8-2,1.4c-0.6,0.6-1,1.3-1.3,2c-0.3,0.8-0.6,1.6-0.7,2.5L684.7,98.2L684.7,98.2z"></path> <path class="st1" d="M728.5,86.1c-0.5-0.5-1.1-0.9-1.7-1.3c-0.6-0.4-1.3-0.7-2-0.9c-0.7-0.2-1.5-0.4-2.2-0.5 c-0.8-0.1-1.6-0.2-2.4-0.2c-1.9,0-3.6,0.4-5,1.1c-1.5,0.7-2.7,1.7-3.6,2.9s-1.7,2.6-2.2,4.1s-0.7,3.1-0.7,4.8 c0,1.8,0.2,3.4,0.7,4.9s1.2,2.8,2.2,3.8c1,1.1,2.2,1.9,3.7,2.5c1.5,0.6,3.2,0.9,5.2,0.9c1.2,0,2.3-0.1,3.4-0.3 c1.1-0.2,2.1-0.5,3.1-0.9v-8.8h-7.4v-3.1h11v13.9c-1.7,0.8-3.4,1.3-5.1,1.7s-3.5,0.5-5.3,0.5c-2.5,0-4.7-0.4-6.5-1.1 c-1.9-0.7-3.5-1.7-4.7-3c-1.3-1.3-2.2-2.9-2.9-4.7c-0.6-1.8-1-3.9-1-6.1c0-1.5,0.2-2.9,0.5-4.3c0.3-1.4,0.8-2.6,1.4-3.8 c0.6-1.2,1.3-2.3,2.2-3.3c0.9-1,1.9-1.8,3-2.5c1.1-0.7,2.4-1.3,3.8-1.6c1.4-0.4,2.9-0.6,4.5-0.6c1,0,2,0.1,2.9,0.2 c0.9,0.1,1.8,0.4,2.6,0.7c0.8,0.3,1.6,0.7,2.3,1.2c0.7,0.5,1.3,1,1.8,1.7L728.5,86.1z"></path> <path class="st1" d="M740.9,110.7h-3.4V94.7c0-0.9,0-1.7,0-2.6c0-0.9-0.1-1.7-0.1-2.5h3.4l0.1,3.2c0.6-1.2,1.4-2.1,2.4-2.7 s2.1-1,3.3-1c0.8,0,1.5,0.1,2.2,0.2l0,3.2c-0.3-0.2-0.6-0.3-1.1-0.4c-0.4-0.1-0.9-0.1-1.3-0.1c-0.8,0-1.6,0.2-2.3,0.5 c-0.7,0.3-1.3,0.8-1.8,1.4c-0.5,0.6-0.9,1.3-1.1,2.2c-0.3,0.9-0.4,1.8-0.4,2.9L740.9,110.7L740.9,110.7z"></path> <path class="st1" d="M761.5,89.1c1.8,0,3.3,0.3,4.7,0.9c1.3,0.6,2.5,1.4,3.4,2.4c0.9,1,1.6,2.2,2,3.5c0.5,1.3,0.7,2.8,0.7,4.3 c0,1.5-0.2,2.9-0.7,4.2c-0.5,1.3-1.2,2.5-2.1,3.5c-0.9,1-2,1.8-3.4,2.4c-1.3,0.6-2.9,0.9-4.6,0.9c-1.8,0-3.3-0.3-4.7-0.9 s-2.5-1.4-3.4-2.4c-0.9-1-1.6-2.2-2.1-3.5c-0.5-1.3-0.7-2.8-0.7-4.3c0-1.5,0.2-3,0.7-4.3c0.5-1.4,1.2-2.5,2.1-3.5s2.1-1.8,3.4-2.4 C758.2,89.4,759.7,89.1,761.5,89.1z M768.6,100.2c0-1.1-0.1-2.2-0.4-3.2c-0.3-1-0.7-1.9-1.3-2.7c-0.6-0.8-1.3-1.4-2.3-1.8 c-0.9-0.4-2-0.7-3.2-0.7c-1.2,0-2.3,0.2-3.2,0.7c-0.9,0.5-1.7,1.1-2.3,1.9s-1.1,1.7-1.4,2.7c-0.3,1-0.5,2.1-0.5,3.2 c0,1.1,0.2,2.1,0.5,3.1c0.3,1,0.8,1.9,1.4,2.6s1.4,1.4,2.3,1.8c0.9,0.4,2,0.7,3.2,0.7c1.2,0,2.3-0.2,3.2-0.7 c0.9-0.5,1.6-1.1,2.2-1.8s1-1.6,1.3-2.6C768.5,102.3,768.6,101.3,768.6,100.2z"></path> <path class="st1" d="M778.4,89.6l5.1,15.3c0.1,0.2,0.1,0.4,0.2,0.6s0.1,0.4,0.2,0.7c0.1,0.2,0.1,0.5,0.2,0.8 c0.1-0.2,0.2-0.4,0.2-0.7c0.1-0.2,0.1-0.4,0.2-0.6c0.1-0.2,0.1-0.4,0.2-0.6l5.5-15.5h3.4l5.1,15.3c0.1,0.2,0.1,0.4,0.2,0.6 c0.1,0.2,0.1,0.4,0.2,0.6c0.1,0.2,0.1,0.5,0.2,0.8c0.1-0.2,0.2-0.5,0.3-0.7c0.1-0.2,0.1-0.4,0.2-0.6s0.1-0.4,0.2-0.6l4.9-15.2h3.5 l-7.6,21.2h-3.3l-5.8-17.1l-6.2,17.1h-3.3l-7.5-21.2L778.4,89.6L778.4,89.6z"></path> </g> </g> </svg> 